<?xml version="1.0" encoding="UTF-8"?>
<svg id="Layer_1" width="512px" height="512px" enable-background="new 0 0 512 512" version="1.1" viewBox="0 0 512 512" xml:space="preserve" xmlns="http://www.w3.org/2000/svg" xmlns:xlink="http://www.w3.org/1999/xlink"><defs><clipPath id="SVGID_2_"><use id="use5" width="100%" height="100%" overflow="visible" xlink:href="#SVGID_1_"/></clipPath><path id="SVGID_1_" d="m23.028 11.518-6.69-3.862s-12.19-7.04-12.908-7.453c-0.715-0.414-1.43-0.164-1.43 0.699v15.029 15.333c0 0.649 0.512 0.93 1.133 0.569 0.624-0.359 13.205-7.625 13.205-7.625l6.69-3.862s5.678-3.278 6.433-3.714c0.754-0.435 0.683-1.032 0.045-1.376s-6.478-3.738-6.478-3.738z"/></defs><g id="g897" transform="translate(-14.624)"><g id="PLAY" transform="matrix(12.551 0 0 12.551 69.777 54.874)"><clipPath id="clipPath867"><use id="use865" width="100%" height="100%" overflow="visible" xlink:href="#SVGID_1_"/></clipPath><polygon id="polygon8" points="2 -0.504 2 15.932 2 32.367 18.577 15.932" clip-path="url(#SVGID_2_)" fill="#00d5ff"/><polygon id="polygon10" points="18.577 15.932 23.028 11.518 16.338 7.655 2 -0.624 2 -0.504" clip-path="url(#SVGID_2_)" fill="#00f076"/><polygon id="polygon12" points="18.577 15.932 2 32.367 2 32.487 16.338 24.209 23.028 20.347" clip-path="url(#SVGID_2_)" fill="#f93647"/><polygon id="polygon14" points="23.028 11.518 18.577 15.932 23.028 20.347 30.676 15.932" clip-path="url(#SVGID_2_)" fill="#ffd000"/></g></g></svg>
